<mxfile host="app.diagrams.net" modified="2023-11-19T23:55:13.188Z" agent="Mozilla/5.0 (Macintosh; Intel Mac OS X 10_15_7) AppleWebKit/537.36 (KHTML, like Gecko) Chrome/119.0.0.0 Safari/537.36" etag="1_hE4ESymSWa-ihtJHbH" version="22.1.3" type="device">
  <diagram id="C5RBs43oDa-KdzZeNtuy" name="Page-1">
    <mxGraphModel dx="926" dy="496" grid="1" gridSize="10" guides="1" tooltips="1" connect="1" arrows="1" fold="1" page="1" pageScale="1" pageWidth="827" pageHeight="1169" math="0" shadow="0">
      <root>
        <mxCell id="WIyWlLk6GJQsqaUBKTNV-0" />
        <mxCell id="WIyWlLk6GJQsqaUBKTNV-1" parent="WIyWlLk6GJQsqaUBKTNV-0" />
        <mxCell id="fcYEVUSBKLoPb2dw5w5l-5" value="read" style="text;html=1;align=center;verticalAlign=middle;resizable=0;points=[];autosize=1;strokeColor=none;fillColor=none;" parent="WIyWlLk6GJQsqaUBKTNV-1" vertex="1">
          <mxGeometry x="240" y="266" width="50" height="30" as="geometry" />
        </mxCell>
        <mxCell id="7jiK56zaPPzvl0VFxbwf-13" value="Sensor" style="swimlane;fontStyle=1;align=center;verticalAlign=top;childLayout=stackLayout;horizontal=1;startSize=26;horizontalStack=0;resizeParent=1;resizeParentMax=0;resizeLast=0;collapsible=1;marginBottom=0;whiteSpace=wrap;html=1;" parent="WIyWlLk6GJQsqaUBKTNV-1" vertex="1">
          <mxGeometry x="320" y="256" width="160" height="70" as="geometry" />
        </mxCell>
        <mxCell id="7jiK56zaPPzvl0VFxbwf-14" value="sensorID: Integer&lt;br&gt;deployedStatus: Boolean" style="text;strokeColor=none;fillColor=none;align=left;verticalAlign=top;spacingLeft=4;spacingRight=4;overflow=hidden;rotatable=0;points=[[0,0.5],[1,0.5]];portConstraint=eastwest;whiteSpace=wrap;html=1;" parent="7jiK56zaPPzvl0VFxbwf-13" vertex="1">
          <mxGeometry y="26" width="160" height="44" as="geometry" />
        </mxCell>
        <mxCell id="7jiK56zaPPzvl0VFxbwf-17" value="Location" style="swimlane;fontStyle=1;align=center;verticalAlign=top;childLayout=stackLayout;horizontal=1;startSize=26;horizontalStack=0;resizeParent=1;resizeParentMax=0;resizeLast=0;collapsible=1;marginBottom=0;whiteSpace=wrap;html=1;" parent="WIyWlLk6GJQsqaUBKTNV-1" vertex="1">
          <mxGeometry x="600" y="256" width="160" height="70" as="geometry" />
        </mxCell>
        <mxCell id="7jiK56zaPPzvl0VFxbwf-18" value="locationID: Integer&lt;br&gt;locationName: String" style="text;strokeColor=none;fillColor=none;align=left;verticalAlign=top;spacingLeft=4;spacingRight=4;overflow=hidden;rotatable=0;points=[[0,0.5],[1,0.5]];portConstraint=eastwest;whiteSpace=wrap;html=1;" parent="7jiK56zaPPzvl0VFxbwf-17" vertex="1">
          <mxGeometry y="26" width="160" height="44" as="geometry" />
        </mxCell>
        <mxCell id="7jiK56zaPPzvl0VFxbwf-25" value="" style="endArrow=none;html=1;rounded=0;" parent="WIyWlLk6GJQsqaUBKTNV-1" edge="1">
          <mxGeometry width="50" height="50" relative="1" as="geometry">
            <mxPoint x="480" y="295" as="sourcePoint" />
            <mxPoint x="600" y="295" as="targetPoint" />
          </mxGeometry>
        </mxCell>
        <mxCell id="7jiK56zaPPzvl0VFxbwf-26" value="Temperature" style="swimlane;fontStyle=1;align=center;verticalAlign=top;childLayout=stackLayout;horizontal=1;startSize=26;horizontalStack=0;resizeParent=1;resizeParentMax=0;resizeLast=0;collapsible=1;marginBottom=0;whiteSpace=wrap;html=1;" parent="WIyWlLk6GJQsqaUBKTNV-1" vertex="1">
          <mxGeometry x="40" y="261" width="160" height="60" as="geometry" />
        </mxCell>
        <mxCell id="7jiK56zaPPzvl0VFxbwf-27" value="temperature: Double" style="text;strokeColor=none;fillColor=none;align=left;verticalAlign=top;spacingLeft=4;spacingRight=4;overflow=hidden;rotatable=0;points=[[0,0.5],[1,0.5]];portConstraint=eastwest;whiteSpace=wrap;html=1;" parent="7jiK56zaPPzvl0VFxbwf-26" vertex="1">
          <mxGeometry y="26" width="160" height="34" as="geometry" />
        </mxCell>
        <mxCell id="7jiK56zaPPzvl0VFxbwf-30" value="" style="endArrow=none;html=1;rounded=0;exitX=-0.001;exitY=0.992;exitDx=0;exitDy=0;entryX=0;entryY=0.295;entryDx=0;entryDy=0;entryPerimeter=0;exitPerimeter=0;" parent="WIyWlLk6GJQsqaUBKTNV-1" source="7jiK56zaPPzvl0VFxbwf-34" target="7jiK56zaPPzvl0VFxbwf-14" edge="1">
          <mxGeometry width="50" height="50" relative="1" as="geometry">
            <mxPoint x="230" y="266" as="sourcePoint" />
            <mxPoint x="320" y="266" as="targetPoint" />
          </mxGeometry>
        </mxCell>
        <mxCell id="7jiK56zaPPzvl0VFxbwf-31" value="map" style="text;html=1;align=center;verticalAlign=middle;resizable=0;points=[];autosize=1;strokeColor=none;fillColor=none;" parent="WIyWlLk6GJQsqaUBKTNV-1" vertex="1">
          <mxGeometry x="515" y="266" width="50" height="30" as="geometry" />
        </mxCell>
        <mxCell id="7jiK56zaPPzvl0VFxbwf-32" value="" style="endArrow=none;dashed=1;html=1;rounded=0;" parent="WIyWlLk6GJQsqaUBKTNV-1" edge="1">
          <mxGeometry width="50" height="50" relative="1" as="geometry">
            <mxPoint x="265" y="400" as="sourcePoint" />
            <mxPoint x="264.57" y="296" as="targetPoint" />
          </mxGeometry>
        </mxCell>
        <mxCell id="7jiK56zaPPzvl0VFxbwf-33" value="" style="endArrow=none;dashed=1;html=1;rounded=0;entryX=0.002;entryY=-0.028;entryDx=0;entryDy=0;entryPerimeter=0;" parent="WIyWlLk6GJQsqaUBKTNV-1" edge="1">
          <mxGeometry width="50" height="50" relative="1" as="geometry">
            <mxPoint x="540" y="400" as="sourcePoint" />
            <mxPoint x="540.0800000000002" y="295.15999999999997" as="targetPoint" />
          </mxGeometry>
        </mxCell>
        <mxCell id="7jiK56zaPPzvl0VFxbwf-34" value="*" style="text;html=1;align=center;verticalAlign=middle;resizable=0;points=[];autosize=1;strokeColor=none;fillColor=none;" parent="WIyWlLk6GJQsqaUBKTNV-1" vertex="1">
          <mxGeometry x="200" y="266" width="30" height="30" as="geometry" />
        </mxCell>
        <mxCell id="7jiK56zaPPzvl0VFxbwf-35" value="*" style="text;html=1;align=center;verticalAlign=middle;resizable=0;points=[];autosize=1;strokeColor=none;fillColor=none;" parent="WIyWlLk6GJQsqaUBKTNV-1" vertex="1">
          <mxGeometry x="290" y="266" width="30" height="30" as="geometry" />
        </mxCell>
        <mxCell id="7jiK56zaPPzvl0VFxbwf-36" value="*" style="text;html=1;align=center;verticalAlign=middle;resizable=0;points=[];autosize=1;strokeColor=none;fillColor=none;" parent="WIyWlLk6GJQsqaUBKTNV-1" vertex="1">
          <mxGeometry x="480" y="266" width="30" height="30" as="geometry" />
        </mxCell>
        <mxCell id="7jiK56zaPPzvl0VFxbwf-37" value="*" style="text;html=1;align=center;verticalAlign=middle;resizable=0;points=[];autosize=1;strokeColor=none;fillColor=none;" parent="WIyWlLk6GJQsqaUBKTNV-1" vertex="1">
          <mxGeometry x="570" y="266" width="30" height="30" as="geometry" />
        </mxCell>
        <mxCell id="7jiK56zaPPzvl0VFxbwf-38" value="&lt;b&gt;&lt;u&gt;342 Project: Iteration 2 (Domain Model)&lt;/u&gt;&lt;/b&gt;" style="text;html=1;align=center;verticalAlign=middle;resizable=0;points=[];autosize=1;strokeColor=none;fillColor=none;" parent="WIyWlLk6GJQsqaUBKTNV-1" vertex="1">
          <mxGeometry x="30" y="10" width="250" height="30" as="geometry" />
        </mxCell>
        <mxCell id="EQ1iUTiEMeRk3HWnu89x-2" value="SensorRegistry" style="swimlane;fontStyle=1;childLayout=stackLayout;horizontal=1;startSize=26;horizontalStack=0;resizeParent=1;resizeParentMax=0;resizeLast=0;collapsible=1;marginBottom=0;align=center;fontSize=12;" parent="WIyWlLk6GJQsqaUBKTNV-1" vertex="1">
          <mxGeometry x="320" y="120" width="160" height="56" as="geometry">
            <mxRectangle x="320" y="-70" width="90" height="30" as="alternateBounds" />
          </mxGeometry>
        </mxCell>
        <mxCell id="EQ1iUTiEMeRk3HWnu89x-24" value="Sensors: list&amp;lt;Sensor&amp;gt;" style="text;html=1;align=center;verticalAlign=middle;resizable=0;points=[];autosize=1;strokeColor=none;fillColor=none;fontSize=13;" parent="EQ1iUTiEMeRk3HWnu89x-2" vertex="1">
          <mxGeometry y="26" width="160" height="30" as="geometry" />
        </mxCell>
        <mxCell id="EQ1iUTiEMeRk3HWnu89x-10" value="Â  LocationRegistry" style="swimlane;fontStyle=1;childLayout=stackLayout;horizontal=1;startSize=26;horizontalStack=0;resizeParent=1;resizeParentMax=0;resizeLast=0;collapsible=1;marginBottom=0;align=center;fontSize=12;" parent="WIyWlLk6GJQsqaUBKTNV-1" vertex="1">
          <mxGeometry x="600" y="120" width="165" height="56" as="geometry">
            <mxRectangle x="320" y="-70" width="90" height="30" as="alternateBounds" />
          </mxGeometry>
        </mxCell>
        <mxCell id="EQ1iUTiEMeRk3HWnu89x-23" value="Locations: list&amp;lt;Location&amp;gt;" style="text;html=1;align=center;verticalAlign=middle;resizable=0;points=[];autosize=1;strokeColor=none;fillColor=none;fontSize=13;" parent="EQ1iUTiEMeRk3HWnu89x-10" vertex="1">
          <mxGeometry y="26" width="165" height="30" as="geometry" />
        </mxCell>
        <mxCell id="mEogtZW_VMmRgnGLLAj3-0" value="&lt;b&gt;Console&lt;/b&gt;" style="html=1;whiteSpace=wrap;" parent="WIyWlLk6GJQsqaUBKTNV-1" vertex="1">
          <mxGeometry x="450" y="40" width="180" height="40" as="geometry" />
        </mxCell>
        <mxCell id="mEogtZW_VMmRgnGLLAj3-2" value="SensorLocationPairTable" style="swimlane;fontStyle=1;align=center;verticalAlign=top;childLayout=stackLayout;horizontal=1;startSize=26;horizontalStack=0;resizeParent=1;resizeParentMax=0;resizeLast=0;collapsible=1;marginBottom=0;whiteSpace=wrap;html=1;" parent="WIyWlLk6GJQsqaUBKTNV-1" vertex="1">
          <mxGeometry x="435" y="540" width="210" height="56" as="geometry" />
        </mxCell>
        <mxCell id="mEogtZW_VMmRgnGLLAj3-5" value="SLPairs: list&amp;lt;sensorLocationPair&amp;gt;" style="text;html=1;align=center;verticalAlign=middle;resizable=0;points=[];autosize=1;strokeColor=none;fillColor=none;" parent="mEogtZW_VMmRgnGLLAj3-2" vertex="1">
          <mxGeometry y="26" width="210" height="30" as="geometry" />
        </mxCell>
        <mxCell id="mEogtZW_VMmRgnGLLAj3-6" value="SensorTemperaturePairTable" style="swimlane;fontStyle=1;align=center;verticalAlign=top;childLayout=stackLayout;horizontal=1;startSize=26;horizontalStack=0;resizeParent=1;resizeParentMax=0;resizeLast=0;collapsible=1;marginBottom=0;whiteSpace=wrap;html=1;" parent="WIyWlLk6GJQsqaUBKTNV-1" vertex="1">
          <mxGeometry x="155" y="540" width="220" height="56" as="geometry" />
        </mxCell>
        <mxCell id="mEogtZW_VMmRgnGLLAj3-7" value="STPairs: list&amp;lt;sensorTemperaturePair&amp;gt;" style="text;html=1;align=center;verticalAlign=middle;resizable=0;points=[];autosize=1;strokeColor=none;fillColor=none;" parent="mEogtZW_VMmRgnGLLAj3-6" vertex="1">
          <mxGeometry y="26" width="220" height="30" as="geometry" />
        </mxCell>
        <mxCell id="mEogtZW_VMmRgnGLLAj3-9" value="SensorLocationPair" style="swimlane;fontStyle=1;align=center;verticalAlign=top;childLayout=stackLayout;horizontal=1;startSize=26;horizontalStack=0;resizeParent=1;resizeParentMax=0;resizeLast=0;collapsible=1;marginBottom=0;whiteSpace=wrap;html=1;" parent="WIyWlLk6GJQsqaUBKTNV-1" vertex="1">
          <mxGeometry x="435" y="400" width="210" height="70" as="geometry" />
        </mxCell>
        <mxCell id="mEogtZW_VMmRgnGLLAj3-10" value="sensor: Sensor&lt;br style=&quot;border-color: var(--border-color);&quot;&gt;&lt;span style=&quot;&quot;&gt;location: Location&lt;/span&gt;" style="text;strokeColor=none;fillColor=none;align=left;verticalAlign=top;spacingLeft=4;spacingRight=4;overflow=hidden;rotatable=0;points=[[0,0.5],[1,0.5]];portConstraint=eastwest;whiteSpace=wrap;html=1;" parent="mEogtZW_VMmRgnGLLAj3-9" vertex="1">
          <mxGeometry y="26" width="210" height="44" as="geometry" />
        </mxCell>
        <mxCell id="mEogtZW_VMmRgnGLLAj3-11" value="SensorTemperaturePair" style="swimlane;fontStyle=1;align=center;verticalAlign=top;childLayout=stackLayout;horizontal=1;startSize=26;horizontalStack=0;resizeParent=1;resizeParentMax=0;resizeLast=0;collapsible=1;marginBottom=0;whiteSpace=wrap;html=1;" parent="WIyWlLk6GJQsqaUBKTNV-1" vertex="1">
          <mxGeometry x="160" y="400" width="210" height="70" as="geometry" />
        </mxCell>
        <mxCell id="mEogtZW_VMmRgnGLLAj3-12" value="sensor: Sensor&lt;br style=&quot;border-color: var(--border-color);&quot;&gt;temperature: Temperature" style="text;strokeColor=none;fillColor=none;align=left;verticalAlign=top;spacingLeft=4;spacingRight=4;overflow=hidden;rotatable=0;points=[[0,0.5],[1,0.5]];portConstraint=eastwest;whiteSpace=wrap;html=1;" parent="mEogtZW_VMmRgnGLLAj3-11" vertex="1">
          <mxGeometry y="26" width="210" height="44" as="geometry" />
        </mxCell>
        <mxCell id="mEogtZW_VMmRgnGLLAj3-13" value="" style="endArrow=diamondThin;endFill=1;endSize=24;html=1;rounded=0;entryX=0.5;entryY=0;entryDx=0;entryDy=0;exitX=0.5;exitY=1;exitDx=0;exitDy=0;" parent="WIyWlLk6GJQsqaUBKTNV-1" source="mEogtZW_VMmRgnGLLAj3-11" target="mEogtZW_VMmRgnGLLAj3-6" edge="1">
          <mxGeometry width="160" relative="1" as="geometry">
            <mxPoint x="265" y="490" as="sourcePoint" />
            <mxPoint x="420" y="510" as="targetPoint" />
          </mxGeometry>
        </mxCell>
        <mxCell id="mEogtZW_VMmRgnGLLAj3-14" value="" style="endArrow=diamondThin;endFill=1;endSize=24;html=1;rounded=0;entryX=0.5;entryY=0;entryDx=0;entryDy=0;exitX=0.5;exitY=1;exitDx=0;exitDy=0;" parent="WIyWlLk6GJQsqaUBKTNV-1" target="mEogtZW_VMmRgnGLLAj3-2" edge="1">
          <mxGeometry width="160" relative="1" as="geometry">
            <mxPoint x="539.73" y="470" as="sourcePoint" />
            <mxPoint x="539.73" y="534" as="targetPoint" />
          </mxGeometry>
        </mxCell>
        <mxCell id="mEogtZW_VMmRgnGLLAj3-15" value="" style="endArrow=diamondThin;endFill=1;endSize=24;html=1;rounded=0;entryX=0.5;entryY=1;entryDx=0;entryDy=0;exitX=0.5;exitY=0;exitDx=0;exitDy=0;" parent="WIyWlLk6GJQsqaUBKTNV-1" source="7jiK56zaPPzvl0VFxbwf-13" target="EQ1iUTiEMeRk3HWnu89x-2" edge="1">
          <mxGeometry width="160" relative="1" as="geometry">
            <mxPoint x="490" y="176" as="sourcePoint" />
            <mxPoint x="490" y="240" as="targetPoint" />
          </mxGeometry>
        </mxCell>
        <mxCell id="mEogtZW_VMmRgnGLLAj3-16" value="" style="endArrow=diamondThin;endFill=1;endSize=24;html=1;rounded=0;entryX=0.5;entryY=1;entryDx=0;entryDy=0;exitX=0.5;exitY=0;exitDx=0;exitDy=0;" parent="WIyWlLk6GJQsqaUBKTNV-1" edge="1">
          <mxGeometry width="160" relative="1" as="geometry">
            <mxPoint x="690" y="256" as="sourcePoint" />
            <mxPoint x="690" y="176" as="targetPoint" />
          </mxGeometry>
        </mxCell>
        <mxCell id="mEogtZW_VMmRgnGLLAj3-17" value="" style="endArrow=none;html=1;rounded=0;exitX=0.937;exitY=-0.01;exitDx=0;exitDy=0;exitPerimeter=0;" parent="WIyWlLk6GJQsqaUBKTNV-1" source="EQ1iUTiEMeRk3HWnu89x-2" edge="1">
          <mxGeometry width="50" height="50" relative="1" as="geometry">
            <mxPoint x="420" y="130" as="sourcePoint" />
            <mxPoint x="470" y="80" as="targetPoint" />
          </mxGeometry>
        </mxCell>
        <mxCell id="mEogtZW_VMmRgnGLLAj3-18" value="" style="endArrow=none;html=1;rounded=0;exitX=0.066;exitY=-0.003;exitDx=0;exitDy=0;exitPerimeter=0;" parent="WIyWlLk6GJQsqaUBKTNV-1" source="EQ1iUTiEMeRk3HWnu89x-10" edge="1">
          <mxGeometry width="50" height="50" relative="1" as="geometry">
            <mxPoint x="610" y="120" as="sourcePoint" />
            <mxPoint x="611" y="80" as="targetPoint" />
          </mxGeometry>
        </mxCell>
        <mxCell id="mEogtZW_VMmRgnGLLAj3-19" value="" style="endArrow=none;html=1;rounded=0;exitX=-0.002;exitY=0.175;exitDx=0;exitDy=0;exitPerimeter=0;" parent="WIyWlLk6GJQsqaUBKTNV-1" source="mEogtZW_VMmRgnGLLAj3-6" edge="1">
          <mxGeometry width="50" height="50" relative="1" as="geometry">
            <mxPoint x="20" y="660" as="sourcePoint" />
            <mxPoint x="450" y="60" as="targetPoint" />
            <Array as="points">
              <mxPoint x="20" y="550" />
              <mxPoint x="20" y="60" />
            </Array>
          </mxGeometry>
        </mxCell>
        <mxCell id="mEogtZW_VMmRgnGLLAj3-20" value="" style="endArrow=none;html=1;rounded=0;entryX=0.999;entryY=0.179;entryDx=0;entryDy=0;entryPerimeter=0;" parent="WIyWlLk6GJQsqaUBKTNV-1" target="mEogtZW_VMmRgnGLLAj3-2" edge="1">
          <mxGeometry width="50" height="50" relative="1" as="geometry">
            <mxPoint x="630" y="60" as="sourcePoint" />
            <mxPoint x="660" y="560" as="targetPoint" />
            <Array as="points">
              <mxPoint x="800" y="60" />
              <mxPoint x="800" y="550" />
            </Array>
          </mxGeometry>
        </mxCell>
        <mxCell id="PbtrDVXx9De3-mIIG52--0" value="Pair&amp;lt;String,Double&amp;gt;" style="swimlane;fontStyle=1;align=center;verticalAlign=top;childLayout=stackLayout;horizontal=1;startSize=26;horizontalStack=0;resizeParent=1;resizeParentMax=0;resizeLast=0;collapsible=1;marginBottom=0;whiteSpace=wrap;html=1;" vertex="1" parent="WIyWlLk6GJQsqaUBKTNV-1">
          <mxGeometry x="110" y="80" width="160" height="70" as="geometry" />
        </mxCell>
        <mxCell id="PbtrDVXx9De3-mIIG52--1" value="locationName: String&lt;br&gt;temperature: Double" style="text;strokeColor=none;fillColor=none;align=left;verticalAlign=top;spacingLeft=4;spacingRight=4;overflow=hidden;rotatable=0;points=[[0,0.5],[1,0.5]];portConstraint=eastwest;whiteSpace=wrap;html=1;" vertex="1" parent="PbtrDVXx9De3-mIIG52--0">
          <mxGeometry y="26" width="160" height="44" as="geometry" />
        </mxCell>
        <mxCell id="PbtrDVXx9De3-mIIG52--5" value="" style="endArrow=open;startArrow=circlePlus;endFill=0;startFill=0;endSize=8;html=1;rounded=0;exitX=0;exitY=0.75;exitDx=0;exitDy=0;" edge="1" parent="WIyWlLk6GJQsqaUBKTNV-1" source="mEogtZW_VMmRgnGLLAj3-0">
          <mxGeometry width="160" relative="1" as="geometry">
            <mxPoint x="260" y="220" as="sourcePoint" />
            <mxPoint x="270" y="100" as="targetPoint" />
            <Array as="points">
              <mxPoint x="290" y="70" />
              <mxPoint x="290" y="100" />
            </Array>
          </mxGeometry>
        </mxCell>
      </root>
    </mxGraphModel>
  </diagram>
</mxfile>
